<svg height="480pt" viewBox="0 0 480 480" width="480pt" xmlns="http://www.w3.org/2000/svg" xmlns:xlink="http://www.w3.org/1999/xlink"><linearGradient id="lg1"><stop offset="0" stop-color="#006df0"/><stop offset="1" stop-color="#00e7f0"/></linearGradient><linearGradient id="linear0" gradientUnits="userSpaceOnUse" x1="56" x2="56" xlink:href="#lg1" y1="567.392" y2="2.648"/><linearGradient id="linear1" gradientUnits="userSpaceOnUse" x1="160" x2="160" xlink:href="#lg1" y1="567.392" y2="2.648"/><linearGradient id="linear4" gradientUnits="userSpaceOnUse" x1="144" x2="144" xlink:href="#lg1" y1="567.392" y2="2.648"/><linearGradient id="linear5" gradientUnits="userSpaceOnUse" x1="240" x2="240" xlink:href="#lg1" y1="567.392" y2="2.648"/><linearGradient id="linear6" gradientUnits="userSpaceOnUse" x1="424" x2="424" xlink:href="#lg1" y1="567.392" y2="2.648"/><linearGradient id="linear8" gradientUnits="userSpaceOnUse" x1="208" x2="208" xlink:href="#lg1" y1="567.392" y2="2.648"/><linearGradient id="linear9" gradientUnits="userSpaceOnUse" x1="272" x2="272" xlink:href="#lg1" y1="567.392" y2="2.648"/><linearGradient id="linear10" gradientUnits="userSpaceOnUse" x1="320" x2="320" xlink:href="#lg1" y1="567.392" y2="2.648"/><linearGradient id="linear11" gradientUnits="userSpaceOnUse" x1="304" x2="304" xlink:href="#lg1" y1="567.392" y2="2.648"/><linearGradient id="linear14" gradientUnits="userSpaceOnUse" x1="205.152" x2="205.152" xlink:href="#lg1" y1="567.392" y2="2.648"/><path d="m48 32h16v16h-16zm0 0" fill="url(#linear0)"/><path d="m80 32h160v16h-160zm0 0" fill="url(#linear1)"/><path d="m48 64h16v16h-16zm0 0" fill="url(#linear0)"/><path d="m80 64h160v16h-160zm0 0" fill="url(#linear1)"/><path d="m240 96h-192v160h192zm-16 144h-160v-128h160zm0 0" fill="url(#linear4)"/><path d="m464 32v392c0 22.089844-17.910156 40-40 40s-40-17.910156-40-40v-424h-384v408c.0429688 39.746094 32.253906 71.957031 72 72h352c30.914062-.035156 55.964844-25.085938 56-56v-392zm-392 432c-30.914062-.035156-55.964844-25.085938-56-56v-392h352v408c-.019531 15.050781 6.039062 29.476562 16.800781 40zm0 0" fill="url(#linear5)"/><path d="m424 448c13.253906 0 24-10.746094 24-24v-392h-16v392c0 4.417969-3.582031 8-8 8s-8-3.582031-8-8v-392h-16v392c0 13.253906 10.746094 24 24 24zm0 0" fill="url(#linear6)"/><path d="m144 200c-4.417969 0-8-3.582031-8-8h-16c.042969 10.132812 6.445312 19.148438 16 22.527344v9.472656h16v-9.472656c11.011719-3.878906 17.621094-15.132813 15.644531-26.640625-1.980469-11.507813-11.96875-19.910157-23.644531-19.886719-4.417969 0-8-3.582031-8-8s3.582031-8 8-8 8 3.582031 8 8h16c-.042969-10.132812-6.445312-19.148438-16-22.527344v-9.472656h-16v9.472656c-11.011719 3.878906-17.621094 15.132813-15.644531 26.640625 1.980469 11.507813 11.96875 19.910157 23.644531 19.886719 4.417969 0 8 3.582031 8 8s-3.582031 8-8 8zm0 0" fill="url(#linear4)"/><path d="m328 368h-48v64h-16v-112h-48v112h-16v-64h-48v64h-16v-48h-48v48h-16v16h272v-16h-16zm-224 64v-32h16v32zm64 0v-48h16v48zm64 0v-96h16v96zm64 0v-48h16v48zm0 0" fill="url(#linear8)"/><path d="m264 120h16v16h-16zm0 0" fill="url(#linear9)"/><path d="m296 120h48v16h-48zm0 0" fill="url(#linear10)"/><g fill="url(#linear11)"><path d="m264 152h80v16h-80zm0 0"/><path d="m264 184h80v16h-80zm0 0"/><path d="m264 216h80v16h-80zm0 0"/></g><path d="m164.425781 328.648438-62.363281 15.589843 3.875 15.523438 65.636719-16.410157 68.921875-53.609374 59.265625 37.042968 8.476562-13.570312-68.742187-42.957032zm0 0" fill="url(#linear14)"/></svg>